<svg width="79" height="69" viewBox="0 0 79 69" fill="none" xmlns="http://www.w3.org/2000/svg">
<path d="M39.5 0L73.708 17.25V51.75L39.5 69L5.292 51.75V17.25L39.5 0Z" fill="url(#paint0_linear)"/>
<path d="M50.375 21H27.625C26.1752 21 25 22.1752 25 23.625V46.375C25 47.8248 26.1752 49 27.625 49H50.375C51.8248 49 53 47.8248 53 46.375V23.625C53 22.1752 51.8248 21 50.375 21ZM51.25 46.375C51.25 46.8583 50.8583 47.25 50.375 47.25H27.625C27.1417 47.25 26.75 46.8583 26.75 46.375V23.625C26.75 23.1417 27.1417 22.75 27.625 22.75H50.375C50.8583 22.75 51.25 23.1417 51.25 23.625V46.375Z" fill="white"/>
<path d="M30.25 24.5H28.5V26.25H30.25V24.5Z" fill="white"/>
<path d="M49.5 24.5H47.75V26.25H49.5V24.5Z" fill="white"/>
<path d="M49.5 43.75H47.75V45.5H49.5V43.75Z" fill="white"/>
<path d="M30.25 43.75H28.5V45.5H30.25V43.75Z" fill="white"/>
<path d="M36.375 34.125H32.875V30.625H31.125V39.375H32.875V35.875H36.375V39.375H38.125V30.625H36.375V34.125Z" fill="white"/>
<path d="M46 35.875V34.125C46 32.192 44.433 30.625 42.5 30.625C40.567 30.625 39 32.192 39 34.125V35.875C39 37.808 40.567 39.375 42.5 39.375C43.0317 39.3704 43.5554 39.2447 44.0312 39.0075C44.3438 39.2502 44.7293 39.3797 45.125 39.375H46.875V37.625H45.5275C45.8359 37.0933 45.9989 36.4897 46 35.875ZM44.25 35.875C44.25 36.8415 43.4665 37.625 42.5 37.625C41.5335 37.625 40.75 36.8415 40.75 35.875V34.125C40.75 33.1585 41.5335 32.375 42.5 32.375C43.4665 32.375 44.25 33.1585 44.25 34.125V35.875Z" fill="white"/>
<defs>
<linearGradient id="paint0_linear" x1="13" y1="-3.32754e-07" x2="79" y2="69" gradientUnits="userSpaceOnUse">
<stop stop-color="#0093FF"/>
<stop offset="1" stop-color="#62BDFF"/>
</linearGradient>
</defs>
</svg>
