<svg width="79" height="69" viewBox="0 0 79 69" fill="none" xmlns="http://www.w3.org/2000/svg">
<path d="M39.5 0L73.708 17.25V51.75L39.5 69L5.292 51.75V17.25L39.5 0Z" fill="url(#paint0_linear)"/>
<path d="M51.6875 21.4375H26.3125C25.5876 21.4375 25 22.0251 25 22.75V42C25 42.2416 25.1959 42.4375 25.4375 42.4375H35.4038L34.7038 45.9375H33.75C33.5084 45.9375 33.3125 46.1334 33.3125 46.375V47.6875H32.4375V48.5625H45.5625V47.6875H44.6875V46.375C44.6875 46.1334 44.4916 45.9375 44.25 45.9375H43.2955L42.5955 42.4375H52.5625C52.8041 42.4375 53 42.2416 53 42V22.75C53 22.0251 52.4124 21.4375 51.6875 21.4375ZM42.9375 46.8125H43.8125V47.6875H34.1875V46.8125H35.0625H42.9375ZM35.5962 45.9375L36.2956 42.4375H41.7038L42.4037 45.9375H35.5962ZM52.125 41.5625H25.875V37.625H32H34.625H37.25H39.875H42.5H46H52.125V41.5625ZM46 25.375H42.5C42.2584 25.375 42.0625 25.5709 42.0625 25.8125V29.75H42.9375V26.25H45.5625V28H43.8125V28.875H45.5625V31.0625H43.8125V31.9375H45.5625V34.125H43.8125V35H45.5625V36.75H42.9375V33.25H42.0625V36.75H40.3125V34.5625C40.3125 32.7771 42.4808 32.3846 42.5718 32.3689C42.6257 32.3599 42.6774 32.3408 42.7243 32.3127C42.9316 32.1886 42.9991 31.9199 42.8749 31.7126L38.9374 25.1501C38.9057 25.1039 38.8657 25.0639 38.8195 25.0322C38.6124 24.8903 38.3295 24.943 38.1876 25.1501L34.2501 31.7126C34.2221 31.7592 34.2031 31.8106 34.194 31.8642C34.1535 32.1024 34.3137 32.3284 34.5519 32.3689C34.6442 32.3846 36.8125 32.7771 36.8125 34.5625V36.75H35.0625V33.25H34.1875V36.75H33.75V28.875H34.1875V29.75H35.0625V28.4375C35.0626 28.3782 35.0506 28.3195 35.0271 28.2651L33.7146 25.2026C33.6703 25.0995 33.5881 25.0173 33.485 24.973C33.263 24.8778 33.0057 24.9806 32.9104 25.2026L31.5979 28.2651C31.5744 28.3195 31.5624 28.3782 31.5625 28.4375V36.75H28.0625V24.5H49.9375V36.75H46.4375V25.8125C46.4375 25.5709 46.2416 25.375 46 25.375ZM37.6875 35.4375V35H39.4375V35.4375H37.6875ZM39.4375 36.3125V36.75H37.6875V36.3125H39.4375ZM37.6556 34.125C37.446 32.7338 36.2547 31.9812 35.3018 31.6597L38.125 26.9546V30.625H39V26.9546L41.8232 31.6597C40.8694 31.9791 39.679 32.7338 39.4694 34.125H37.6556ZM32.6625 28L33.3125 26.4836L33.9625 28H32.6625ZM32.875 28.875V36.75H32.4375V28.875H32.875ZM52.125 36.75H50.8125V24.0625C50.8125 23.8209 50.6166 23.625 50.375 23.625H27.625C27.3834 23.625 27.1875 23.8209 27.1875 24.0625V36.75H25.875V22.75C25.875 22.5084 26.0709 22.3125 26.3125 22.3125H51.6875C51.9291 22.3125 52.125 22.5084 52.125 22.75V36.75Z" fill="white"/>
<path d="M39 38.0625C38.2751 38.0625 37.6875 38.6501 37.6875 39.375C37.6875 40.0999 38.2751 40.6875 39 40.6875C39.7249 40.6875 40.3125 40.0999 40.3125 39.375C40.3125 38.6501 39.7249 38.0625 39 38.0625ZM39 39.8125C38.7584 39.8125 38.5625 39.6166 38.5625 39.375C38.5625 39.1334 38.7584 38.9375 39 38.9375C39.2416 38.9375 39.4375 39.1334 39.4375 39.375C39.4375 39.6166 39.2416 39.8125 39 39.8125Z" fill="white"/>
<defs>
<linearGradient id="paint0_linear" x1="13" y1="-3.32754e-07" x2="79" y2="69" gradientUnits="userSpaceOnUse">
<stop stop-color="#0093FF"/>
<stop offset="1" stop-color="#62BDFF"/>
</linearGradient>
</defs>
</svg>
