<svg width="79" height="69" viewBox="0 0 79 69" fill="none" xmlns="http://www.w3.org/2000/svg">
<path d="M39.5 0L73.708 17.25V51.75L39.5 69L5.292 51.75V17.25L39.5 0Z" fill="url(#paint0_linear)"/>
<path d="M48.6591 32.7289H48.5154V29.0205C48.5154 26.8727 47.6744 24.8537 46.1474 23.3353C44.6316 21.8282 42.626 21 40.4953 21C40.4797 21 40.4638 21.0001 40.4481 21.0001C36.0513 21.0254 32.4743 24.6608 32.4743 29.104V31.0903C32.4743 31.3285 32.6674 31.5215 32.9055 31.5215H35.2053C35.4435 31.5215 35.6365 31.3285 35.6365 31.0903V29.088C35.6365 26.3977 37.7944 24.1881 40.4468 24.1624C41.7529 24.1522 42.9822 24.6497 43.9116 25.5701C44.8412 26.4908 45.3532 27.7161 45.3532 29.0205V32.7289H32.3306C31.1417 32.7289 30.1746 33.6961 30.1746 34.885V48.5688C30.1746 48.807 30.3676 49 30.6058 49H50.384C50.6222 49 50.8152 48.807 50.8152 48.5688V34.885C50.8152 33.6961 49.8481 32.7289 48.6591 32.7289ZM44.5185 24.9574C43.4242 23.8737 41.9753 23.2834 40.4385 23.3C37.3152 23.3303 34.7742 25.9267 34.7742 29.088V30.6591H33.3368V29.104C33.3368 25.1336 36.5291 21.8851 40.4531 21.8625C40.4672 21.8625 40.4811 21.8624 40.4952 21.8624C42.3964 21.8624 44.1865 22.6017 45.5393 23.9468C46.9024 25.3021 47.6531 27.104 47.6531 29.0205V32.7289H46.2157V29.0205C46.2156 27.4842 45.6129 26.0412 44.5185 24.9574ZM49.9528 48.1376H31.037V34.885C31.037 34.1716 31.6173 33.5914 32.3306 33.5914H45.7858H48.0842H48.6591C49.3725 33.5914 49.9528 34.1716 49.9528 34.885V48.1376Z" fill="white"/>
<path d="M41.2738 40.1561C42.5297 39.8131 43.4558 38.6629 43.4558 37.2998C43.4558 35.6671 42.1275 34.3388 40.4948 34.3388C38.8621 34.3388 37.5338 35.6671 37.5338 37.2998C37.5338 38.6629 38.46 39.8131 39.7159 40.1561C37.5655 40.527 35.924 42.4044 35.924 44.6592V46.9589C35.924 47.1971 36.117 47.3901 36.3552 47.3901H44.6344C44.8726 47.3901 45.0656 47.1971 45.0656 46.9589V44.6592C45.0657 42.4044 43.4242 40.527 41.2738 40.1561ZM38.3963 37.2998C38.3963 36.1426 39.3378 35.2012 40.4949 35.2012C41.652 35.2012 42.5935 36.1426 42.5935 37.2998C42.5935 38.4569 41.652 39.3983 40.4949 39.3983C39.3378 39.3983 38.3963 38.4569 38.3963 37.2998ZM44.2033 46.5277H36.7865V44.6592C36.7865 42.6143 38.4501 40.9507 40.4949 40.9507C42.5397 40.9507 44.2033 42.6143 44.2033 44.6592V46.5277Z" fill="white"/>
<path d="M48.0842 35.7187C47.846 35.7187 47.653 35.9117 47.653 36.1499V41.8994C47.653 42.1375 47.846 42.3306 48.0842 42.3306C48.3223 42.3306 48.5154 42.1375 48.5154 41.8994V36.1499C48.5154 35.9117 48.3223 35.7187 48.0842 35.7187Z" fill="white"/>
<path d="M48.0842 43.0781C47.846 43.0781 47.653 43.2711 47.653 43.5093V45.809C47.653 46.0472 47.846 46.2403 48.0842 46.2403C48.3223 46.2403 48.5154 46.0472 48.5154 45.809V43.5093C48.5154 43.2711 48.3223 43.0781 48.0842 43.0781Z" fill="white"/>
<path d="M29.4049 30.587H27.616C27.3779 30.587 27.1848 30.78 27.1848 31.0182C27.1848 31.2564 27.3779 31.4494 27.616 31.4494H29.4049C29.643 31.4494 29.8361 31.2564 29.8361 31.0182C29.8361 30.78 29.643 30.587 29.4049 30.587Z" fill="white"/>
<path d="M30.2091 29.2497L29.0708 28.1113C28.9024 27.943 28.6293 27.943 28.461 28.1113C28.2926 28.2797 28.2926 28.5528 28.461 28.7212L29.5993 29.8595C29.6835 29.9436 29.7939 29.9858 29.9042 29.9858C30.0145 29.9858 30.1249 29.9437 30.2091 29.8595C30.3775 29.6911 30.3775 29.418 30.2091 29.2497Z" fill="white"/>
<path d="M30.1976 32.1768C30.0292 32.0084 29.7562 32.0084 29.5879 32.1768L28.4495 33.3151C28.2811 33.4835 28.2811 33.7566 28.4495 33.9249C28.5337 34.0091 28.6441 34.0512 28.7544 34.0512C28.8647 34.0512 28.9751 34.0091 29.0593 33.9249L30.1976 32.7866C30.3661 32.6183 30.3661 32.3453 30.1976 32.1768Z" fill="white"/>
<defs>
<linearGradient id="paint0_linear" x1="13" y1="-3.32754e-07" x2="79" y2="69" gradientUnits="userSpaceOnUse">
<stop stop-color="#0093FF"/>
<stop offset="1" stop-color="#62BDFF"/>
</linearGradient>
</defs>
</svg>
