<svg width="79" height="69" viewBox="0 0 79 69" fill="none" xmlns="http://www.w3.org/2000/svg">
<path d="M39.5 0L73.708 17.25V51.75L39.5 69L5.292 51.75V17.25L39.5 0Z" fill="url(#paint0_linear)"/>
<path d="M27.7846 45.3763C27.8471 45.3763 27.9101 45.3637 27.9708 45.3371C29.4594 44.6889 31.9734 44.3515 35.4454 44.3337L35.7823 45.0085C35.898 45.2391 36.1785 45.3333 36.4086 45.2171C36.6391 45.1018 36.7329 44.8218 36.6171 44.5913L36.1509 43.658C36.0716 43.4998 35.9101 43.3999 35.7333 43.3999C31.9304 43.3999 29.269 43.7536 27.5979 44.4812C27.3617 44.5843 27.2539 44.8592 27.3566 45.0958C27.4332 45.2713 27.6045 45.3763 27.7846 45.3763Z" fill="white"/>
<path d="M52.0666 46.2H51.1333V43.8666C51.1333 43.743 51.0838 43.624 50.9966 43.5367L48.1929 40.7334C48.2806 40.5509 48.3333 40.3489 48.3333 40.1333C48.3333 39.3614 47.7052 38.7333 46.9333 38.7333C46.1615 38.7333 45.5333 39.3614 45.5333 40.1333C45.5333 40.9051 46.1615 41.5333 46.9333 41.5333C47.1489 41.5333 47.3506 41.4806 47.533 41.3933L50.2 44.0598V46.2H25.9334C25.4186 46.2 25 46.6186 25 47.1333V48.5333C25 48.7909 25.2091 49 25.4666 49C25.7242 49 25.9333 48.7909 25.9333 48.5333V47.1333H52.0666V48.5333C52.0666 48.7909 52.2752 49 52.5333 49C52.7914 49 52.9999 48.7909 52.9999 48.5333V47.1333C53 46.6186 52.5809 46.2 52.0666 46.2ZM46.9333 40.6C46.6758 40.6 46.4667 40.3905 46.4667 40.1333C46.4667 39.8762 46.6758 39.6667 46.9333 39.6667C47.1909 39.6667 47.4 39.8762 47.4 40.1333C47.4 40.3905 47.1909 40.6 46.9333 40.6Z" fill="white"/>
<path d="M31.6626 34.9589C32.0028 35.8446 33.1283 38.7006 33.945 39.9256L34.0188 40.0372C34.618 40.9457 35.6203 42.4666 39 42.4666C42.3791 42.4666 43.382 40.9457 43.9812 40.0372L44.0549 39.9256C44.8716 38.7006 45.9967 35.8446 46.3374 34.9589C46.9469 34.8073 47.4 34.2556 47.4 33.6V31.7334C47.4 31.1248 47.0098 30.6059 46.4666 30.4131V28C46.4666 26.1576 45.4964 22.7542 41.9078 22.4256C41.9008 22.2054 41.828 22.0281 41.7468 21.8969C41.288 21.1554 40 21 39 21C30.6961 21 30.6 28.854 30.6 28.9334C30.6 29.1909 30.8086 29.3996 31.0657 29.3996H31.0666C31.3238 29.3996 31.5323 29.1914 31.5333 28.9338C31.5342 28.6483 31.6392 21.9334 38.9999 21.9334C40.3196 21.9334 40.8484 22.2189 40.9529 22.3879C40.9674 22.4116 41.0071 22.4756 40.9156 22.6581C40.8432 22.8027 40.8511 22.9745 40.9361 23.1121C41.0215 23.2494 41.1713 23.3334 41.3332 23.3334C45.4707 23.3334 45.5327 27.8101 45.5332 28V30.8C45.5332 31.0576 45.7418 31.2666 45.9999 31.2666C46.2574 31.2666 46.4665 31.4762 46.4665 31.7333V33.6C46.4665 33.8571 46.2574 34.0666 45.9999 34.0666C45.8053 34.0666 45.6312 34.1875 45.5626 34.3695C45.5491 34.4064 44.171 38.0688 43.2782 39.4076L43.2017 39.5234C42.6427 40.3718 41.8764 41.5333 38.9999 41.5333C36.1229 41.5333 35.3571 40.3718 34.798 39.5234L34.7215 39.4076C33.8288 38.0688 32.4507 34.4064 32.4367 34.3695C32.3686 34.1875 32.1945 34.0666 31.9999 34.0666C31.7428 34.0666 31.5333 33.8571 31.5333 33.6V31.7334C31.5333 31.6069 31.5837 31.4921 31.6658 31.4081C31.8352 31.7884 32.181 32.1305 32.762 32.1884L34.3589 33.3858C34.4836 34.2949 35.2568 35 36.2 35H37.1333C38.1628 35 39 34.1628 39 33.1334C39 34.1628 39.8372 35 40.8666 35H41.8C42.7426 35 43.5168 34.2949 43.641 33.3854L45.3466 32.1067C45.5529 31.9522 45.5949 31.6596 45.44 31.4534C45.2855 31.2471 44.9929 31.2046 44.7866 31.36L43.5971 32.2523C43.4193 31.6834 42.8938 31.2667 42.2666 31.2667H40.4C39.6281 31.2667 39 31.8948 39 32.6667C39 31.8948 38.3718 31.2667 37.6 31.2667H35.7333C35.1066 31.2667 34.5811 31.6834 34.4029 32.2523L33.5125 31.5845C33.8797 30.6969 34.2125 29.3841 34.3067 28.4625C35.7777 28.4364 40.0332 28.2567 41.9265 27.0751C42.3558 28.7326 43.7339 30.1276 43.8034 30.1966C43.9858 30.3791 44.2808 30.3791 44.4633 30.1966C44.6457 30.0141 44.6457 29.7192 44.4633 29.5368C44.446 29.5195 42.7333 27.7877 42.7333 26.1334C42.7333 25.9238 42.5933 25.7395 42.3913 25.6835C42.1901 25.6275 41.974 25.7134 41.8667 25.893C41.1873 27.0246 36.7796 27.5334 33.8667 27.5334C33.6091 27.5334 33.4 27.7424 33.4 28C33.4 28.7574 33.0421 30.2704 32.6613 31.2014C32.5125 31.1118 32.4705 30.9447 32.4667 30.8C32.4667 30.5424 32.2577 30.3334 32.0001 30.3334C31.2282 30.3334 30.6001 30.9615 30.6001 31.7334V33.6C30.6 34.2556 31.0531 34.8073 31.6626 34.9589ZM39.9333 32.6666C39.9333 32.4095 40.1424 32.2 40.4 32.2H42.2666C42.5242 32.2 42.7333 32.4095 42.7333 32.6666V33.1333C42.7333 33.648 42.3147 34.0666 41.7999 34.0666H40.8666C40.3518 34.0666 39.9332 33.6481 39.9332 33.1333V32.6666H39.9333ZM35.2666 32.6666C35.2666 32.4095 35.4761 32.2 35.7333 32.2H37.6C37.8571 32.2 38.0666 32.4095 38.0666 32.6666V33.1333C38.0666 33.648 37.648 34.0666 37.1333 34.0666H36.2C35.6853 34.0666 35.2666 33.6481 35.2666 33.1333V32.6666Z" fill="white"/>
<path d="M41.3329 37.8014C41.3334 37.5443 41.1252 37.3348 40.8681 37.3334C40.8592 37.3334 40.0248 37.324 39.2086 36.9157C39.0775 36.8504 38.9225 36.8504 38.7914 36.9157C37.9752 37.3241 37.1403 37.3334 37.1333 37.3334C36.8758 37.3334 36.6667 37.5424 36.6667 37.8C36.6667 38.0576 36.8758 38.2667 37.1333 38.2667C37.173 38.2667 38.0545 38.2615 39 37.8481C39.945 38.2615 40.827 38.2667 40.8666 38.2667C41.1238 38.2667 41.332 38.0585 41.3329 37.8014Z" fill="white"/>
<path d="M42.2653 43.4192C42.0908 43.4201 41.9307 43.5181 41.8509 43.674L41.3842 44.5877C41.2671 44.8173 41.3586 45.0987 41.5877 45.2158C41.6554 45.2503 41.7282 45.2667 41.7996 45.2667C41.9694 45.2667 42.1332 45.1738 42.2158 45.0123L42.5523 44.3525C45.1031 44.3595 47.1574 44.5503 48.6628 44.92C48.9139 44.982 49.1659 44.8285 49.2271 44.5784C49.2886 44.3278 49.1361 44.0753 48.8855 44.0137C47.2511 43.6119 45.0345 43.4028 42.2653 43.4192Z" fill="white"/>
<path d="M38.5333 43.8667V44.8C38.5333 45.0576 38.7424 45.2667 39 45.2667C39.2576 45.2667 39.4666 45.0576 39.4666 44.8V43.8667C39.4666 43.6091 39.2576 43.4 39 43.4C38.7424 43.4 38.5333 43.6091 38.5333 43.8667Z" fill="white"/>
<path d="M38.5334 38.7333C38.2758 38.7333 38.0667 38.9424 38.0667 39.2C38.0667 39.4576 38.2758 39.6666 38.5334 39.6666H39.4667C39.7248 39.6666 39.9334 39.4576 39.9334 39.2C39.9334 38.9424 39.7248 38.7333 39.4667 38.7333H38.5334Z" fill="white"/>
<defs>
<linearGradient id="paint0_linear" x1="13" y1="-3.32754e-07" x2="79" y2="69" gradientUnits="userSpaceOnUse">
<stop stop-color="#0093FF"/>
<stop offset="1" stop-color="#62BDFF"/>
</linearGradient>
</defs>
</svg>
