<svg width="10" height="10" viewBox="0 0 10 10" fill="none" xmlns="http://www.w3.org/2000/svg">
<path d="M7.47191 4.55813C7.42129 4.44625 7.31004 4.375 7.18754 4.375H5.93754V0.3125C5.93754 0.14 5.79754 0 5.62504 0H4.37504C4.20254 0 4.06254 0.14 4.06254 0.3125V4.375H2.81254C2.69004 4.375 2.57879 4.44688 2.52816 4.55813C2.47691 4.67 2.49691 4.80062 2.57754 4.89313L4.76504 7.39313C4.82441 7.46125 4.91004 7.5 5.00004 7.5C5.09004 7.5 5.17566 7.46063 5.23504 7.39313L7.42254 4.89313C7.50379 4.80125 7.52254 4.67 7.47191 4.55813Z" fill="#A2A8B1"/>
<path d="M8.4375 6.875V8.75H1.5625V6.875H0.3125V9.375C0.3125 9.72062 0.5925 10 0.9375 10H9.0625C9.40812 10 9.6875 9.72062 9.6875 9.375V6.875H8.4375Z" fill="#A2A8B1"/>
</svg>
