<svg width="16" height="17" viewBox="0 0 16 17" fill="none" xmlns="http://www.w3.org/2000/svg">
<path d="M0.645937 16.1165C1.07657 16.429 1.5961 16.5853 2.20469 16.5853H13.2277C13.8364 16.5853 14.3559 16.429 14.7864 16.1165C15.2168 15.8041 15.4322 15.427 15.4322 14.9853H0C0.000120651 15.427 0.215423 15.8041 0.645937 16.1165Z" fill="white"/>
<path d="M4.13782 13.856H10.2067C10.7353 13.856 11.1894 13.6658 11.5688 13.2853C11.948 12.9047 12.1377 12.4492 12.1377 11.9188V11.6421H12.6893C13.6031 11.6421 14.3835 11.3179 15.0299 10.6692C15.6763 10.0205 15.9998 9.23787 15.9998 8.32116C15.9998 7.40433 15.6763 6.62157 15.0299 5.97299C14.3835 5.32442 13.6031 5 12.6893 5H2.75846C2.60909 5 2.4798 5.05489 2.37056 5.1643C2.26138 5.27387 2.20679 5.40366 2.20679 5.55355V11.9187C2.20679 12.4492 2.39641 12.9047 2.77573 13.2852C3.15506 13.6658 3.60909 13.856 4.13782 13.856ZM12.1377 6.66067H12.6895C13.1493 6.66067 13.5401 6.82213 13.8618 7.14494C14.1836 7.46785 14.3446 7.85985 14.3446 8.32119C14.3446 8.78229 14.1836 9.17438 13.8618 9.49741C13.5401 9.82023 13.1493 9.98171 12.6895 9.98171H12.1377V6.66067Z" fill="white"/>
<path d="M4 3.01602C4 3.26031 4.09521 3.49009 4.26834 3.66302C4.3071 3.70178 4.35799 3.72126 4.40887 3.72126C4.45976 3.72126 4.51064 3.70178 4.5494 3.66302C4.62712 3.5853 4.62712 3.45967 4.5494 3.38195C4.45161 3.28416 4.39754 3.15416 4.39754 3.01602C4.39754 2.87787 4.45141 2.74767 4.5494 2.64988C4.72234 2.47695 4.81775 2.24717 4.81775 2.00268C4.81775 1.75819 4.72253 1.52841 4.5494 1.35548C4.47168 1.27776 4.34586 1.27776 4.26834 1.35548C4.19062 1.4332 4.19062 1.55882 4.26834 1.63654C4.36614 1.73453 4.42 1.86473 4.42 2.00288C4.42 2.14102 4.36614 2.27122 4.26814 2.36901C4.09521 2.54195 4 2.77173 4 3.01602Z" fill="white"/>
<path d="M9.78076 3.01602C9.78076 3.26031 9.87597 3.49009 10.0491 3.66302C10.0879 3.70178 10.1387 3.72126 10.1896 3.72126C10.2405 3.72126 10.2914 3.70178 10.3302 3.66302C10.4079 3.5853 10.4079 3.45967 10.3302 3.38195C10.2324 3.28416 10.1783 3.15416 10.1783 3.01602C10.1783 2.87787 10.2322 2.74767 10.3302 2.64988C10.5031 2.47695 10.5985 2.24717 10.5985 2.00268C10.5985 1.75819 10.5033 1.52841 10.3302 1.35548C10.2524 1.27776 10.1266 1.27776 10.0491 1.35548C9.97138 1.4332 9.97138 1.55882 10.0491 1.63654C10.1469 1.73453 10.2008 1.86473 10.2008 2.00288C10.2008 2.14102 10.1469 2.27122 10.0489 2.36901C9.87597 2.54195 9.78076 2.77173 9.78076 3.01602Z" fill="white"/>
<path d="M6.81787 2.24458C6.81787 2.55526 6.93892 2.84706 7.15876 3.0669C7.19752 3.10566 7.24841 3.12514 7.2993 3.12514C7.35018 3.12514 7.40107 3.10566 7.44003 3.0669C7.51755 2.98918 7.51755 2.86355 7.44003 2.78583C7.29512 2.64093 7.21561 2.44892 7.21561 2.24458C7.21561 2.04024 7.29532 1.84803 7.44003 1.70312C7.65987 1.48348 7.78092 1.19149 7.78092 0.880807C7.78092 0.570127 7.65987 0.27833 7.44003 0.0582898C7.36231 -0.0194299 7.23668 -0.0194299 7.15896 0.0582898C7.08124 0.136009 7.08124 0.261633 7.15896 0.339353C7.30367 0.484257 7.38338 0.676271 7.38338 0.880807C7.38338 1.08494 7.30367 1.27716 7.15896 1.42206C6.93892 1.6419 6.81787 1.9339 6.81787 2.24458Z" fill="white"/>
</svg>
