<svg width="17" height="19" viewBox="0 0 17 19" fill="none" xmlns="http://www.w3.org/2000/svg">
<path d="M13.1889 12.308C12.2952 12.308 11.4549 12.6561 10.823 13.2881C10.7774 13.3336 10.7337 13.3806 10.6911 13.4282L6.43715 10.7592C6.60333 10.3583 6.69042 9.92461 6.69042 9.47751C6.69042 9.0342 6.60455 8.60418 6.44116 8.20607L10.684 5.56347C10.7288 5.61398 10.7748 5.66374 10.823 5.71191C11.4549 6.34388 12.2952 6.69193 13.1889 6.69193C14.0826 6.69193 14.9229 6.34388 15.5549 5.71191C16.8595 4.40733 16.8595 2.28456 15.5549 0.979984C14.9229 0.348049 14.0826 0 13.1889 0C12.2952 0 11.4549 0.348049 10.823 0.980021C10.191 1.61199 9.8429 2.45222 9.8429 3.34597C9.8429 3.78928 9.92877 4.2193 10.0922 4.61737L5.8493 7.26C5.80447 7.2095 5.75853 7.15973 5.71036 7.11157C5.07843 6.47959 4.23816 6.13155 3.34442 6.13155C2.45068 6.13155 1.61044 6.47959 0.978435 7.11157C-0.326145 8.41615 -0.326145 10.5389 0.978435 11.8435C1.61041 12.4755 2.45068 12.8235 3.34442 12.8235C4.23816 12.8235 5.07839 12.4755 5.71036 11.8435C5.75593 11.7979 5.79957 11.751 5.84218 11.7033L10.0962 14.3723C9.93 14.7732 9.8429 15.2069 9.8429 15.654C9.8429 16.5478 10.191 17.388 10.823 18.02C11.4549 18.652 12.2952 19 13.1889 19C14.0826 19 14.9229 18.652 15.5549 18.02C16.8595 16.7154 16.8595 14.5926 15.5549 13.2881C14.9229 12.6561 14.0826 12.308 13.1889 12.308ZM12.6583 2.81538C12.9509 2.52277 13.427 2.52277 13.7195 2.81538C14.0121 3.10795 14.0121 3.58399 13.7195 3.87659C13.5732 4.02288 13.3811 4.09602 13.1889 4.09602C12.9968 4.09602 12.8046 4.02288 12.6584 3.87659C12.3657 3.58399 12.3657 3.10795 12.6583 2.81538ZM3.87504 10.0081C3.72876 10.1544 3.53661 10.2276 3.34445 10.2276C3.1523 10.2276 2.96015 10.1544 2.81386 10.0081C2.52126 9.71557 2.52126 9.23953 2.81386 8.94692C3.10644 8.65431 3.58251 8.65431 3.87508 8.94692C4.16765 9.23953 4.16765 9.71557 3.87504 10.0081ZM13.7195 16.1846C13.5732 16.3309 13.3811 16.4041 13.1889 16.4041C12.9968 16.4041 12.8046 16.3309 12.6583 16.1846C12.3657 15.8921 12.3657 15.416 12.6583 15.1234C12.9509 14.8308 13.427 14.8308 13.7195 15.1234C14.0121 15.416 14.0121 15.8921 13.7195 16.1846Z" fill="white"/>
</svg>
