<svg width="16" height="16" viewBox="0 0 16 16" fill="none" xmlns="http://www.w3.org/2000/svg">
<path d="M0.569738 15.5806C0.949572 15.8562 1.40781 15.9941 1.94461 15.9941H11.6673C12.2041 15.9941 12.6624 15.8562 13.0421 15.5806C13.4218 15.305 13.6117 14.9724 13.6117 14.5828H0C0.000106418 14.9724 0.19001 15.305 0.569738 15.5806Z" fill="#444444" fill-opacity="0.8"/>
<path d="M8.47391 12.8869L12.3245 9.16847C12.6599 8.84456 12.8314 8.44569 12.839 7.97177C12.8465 7.49795 12.6877 7.09271 12.3627 6.75618L12.1932 6.58063L12.5432 6.24266C13.123 5.68274 13.4194 4.99889 13.4321 4.19121C13.4448 3.3836 13.1705 2.68885 12.6088 2.10721C12.0471 1.5255 11.3622 1.22702 10.5547 1.21157C9.74718 1.19614 9.05328 1.46844 8.47346 2.02837L2.17254 8.11309C2.07777 8.20461 2.02936 8.31866 2.02709 8.45501C2.02495 8.59143 2.06984 8.70723 2.16167 8.80233L6.0617 12.8409C6.3867 13.1775 6.7861 13.3503 7.25994 13.3593C7.73383 13.3684 8.13844 13.2109 8.47391 12.8869ZM9.141 3.42L9.49108 3.08192C9.78283 2.80018 10.1297 2.66317 10.5317 2.67085C10.9336 2.67859 11.276 2.82867 11.5586 3.12138C11.8412 3.41394 11.9793 3.76136 11.973 4.16345C11.9667 4.56541 11.8177 4.90734 11.5259 5.18906L11.1758 5.52714L9.141 3.42Z" fill="#444444" fill-opacity="0.8"/>
<path d="M0.88208 11.8695C0.88208 10.5866 1.5436 9.3036 1.76411 9.3036C1.98462 9.3036 2.64615 10.5866 2.64615 11.8695C2.64615 13.1525 0.88208 13.1525 0.88208 11.8695Z" fill="#666666"/>
</svg>
