<svg width="17" height="20" viewBox="0 0 17 20" fill="none" xmlns="http://www.w3.org/2000/svg">
<path d="M13.1889 12.7839C12.2952 12.7839 11.4549 13.1207 10.823 13.7322C10.7774 13.7763 10.7337 13.8217 10.6911 13.8678L6.43715 11.2853C6.60333 10.8973 6.69042 10.4777 6.69042 10.045C6.69042 9.61609 6.60455 9.2 6.44116 8.81478L10.684 6.25778C10.7288 6.30665 10.7748 6.3548 10.823 6.40141C11.4549 7.01291 12.2952 7.34969 13.1889 7.34969C14.0826 7.34969 14.9229 7.01291 15.5549 6.40141C16.8595 5.13908 16.8595 3.08507 15.5549 1.82274C14.9229 1.21127 14.0826 0.874496 13.1889 0.874496C12.2952 0.874496 11.4549 1.21127 10.823 1.82278C10.191 2.43428 9.8429 3.2473 9.8429 4.11209C9.8429 4.54104 9.92877 4.95714 10.0922 5.34232L5.8493 7.89936C5.80447 7.85049 5.75853 7.80234 5.71036 7.75573C5.07843 7.14422 4.23816 6.80745 3.34442 6.80745C2.45068 6.80745 1.61044 7.14422 0.978435 7.75573C-0.326145 9.01805 -0.326145 11.0721 0.978435 12.3344C1.61041 12.9459 2.45068 13.2827 3.34442 13.2827C4.23816 13.2827 5.07839 12.9459 5.71036 12.3344C5.75593 12.2903 5.79957 12.2449 5.84218 12.1988L10.0962 14.7813C9.93 15.1693 9.8429 15.5889 9.8429 16.0215C9.8429 16.8863 10.191 17.6993 10.823 18.3108C11.4549 18.9223 12.2952 19.2591 13.1889 19.2591C14.0826 19.2591 14.9229 18.9223 15.5549 18.3108C16.8595 17.0485 16.8595 14.9945 15.5549 13.7322C14.9229 13.1207 14.0826 12.7839 13.1889 12.7839ZM12.6583 3.59869C12.9509 3.31556 13.427 3.31556 13.7195 3.59869C14.0121 3.88178 14.0121 4.3424 13.7195 4.62553C13.5732 4.76708 13.3811 4.83785 13.1889 4.83785C12.9968 4.83785 12.8046 4.76708 12.6584 4.62553C12.3657 4.3424 12.3657 3.88178 12.6583 3.59869ZM3.87504 10.5585C3.72876 10.7 3.53661 10.7708 3.34445 10.7708C3.1523 10.7708 2.96015 10.7 2.81386 10.5585C2.52126 10.2754 2.52126 9.81477 2.81386 9.53164C3.10644 9.24851 3.58251 9.24851 3.87508 9.53164C4.16765 9.81477 4.16765 10.2754 3.87504 10.5585ZM13.7195 16.5349C13.5732 16.6765 13.3811 16.7472 13.1889 16.7472C12.9968 16.7472 12.8046 16.6765 12.6583 16.5349C12.3657 16.2518 12.3657 15.7912 12.6583 15.5081C12.9509 15.2249 13.427 15.2249 13.7195 15.5081C14.0121 15.7912 14.0121 16.2518 13.7195 16.5349Z" fill="#444444" fill-opacity="0.7"/>
</svg>
